<svg data-v-0dd9719b="" version="1.0" xmlns="http://www.w3.org/2000/svg" xmlns:xlink="http://www.w3.org/1999/xlink" width="100%" height="100%" viewBox="0 0 340.000000 250.000000" preserveAspectRatio="xMidYMid meet" color-interpolation-filters="sRGB" style="margin: auto;"> <rect data-v-0dd9719b="" x="0" y="0" width="100%" height="100%" fill="#fff" fill-opacity="1" class="background"></rect> <rect data-v-0dd9719b="" x="0" y="0" width="100%" height="100%" fill="url(#watermark)" fill-opacity="1" class="watermarklayer"></rect> <g data-v-0dd9719b="" fill="#333" class="icon-text-wrapper icon-svg-group iconsvg" transform="translate(58.470001220703125,96.25886154174805)"><g class="iconsvg-imagesvg" transform="translate(0,0)"><g><rect fill="#333" fill-opacity="0" stroke-width="2" x="0" y="0" width="60" height="57.4822762981414" class="image-rect"></rect> <svg x="0" y="0" width="60" height="57.4822762981414" filtersec="colorsb3044532466" class="image-svg-svg primary" style="overflow: visible;"><svg xmlns="http://www.w3.org/2000/svg" viewBox="0 0 104.3800048828125 100"><path fill="#012f64" d="M56.8 23.89L35.59 12.62v9.6L56.8 34.14V23.89zM71.91 76.18l8.89 4.73V60.18l-8.89-4.73v20.73zM80.8 36.65L59.59 25.38v10.34l12.33 6.92-.01 10.02 8.89 4.72V36.65z"></path><path fill="#00a8ef" d="M104.38 48.9v20.73L83.17 80.91V60.18l21.21-11.28zM83.17 36.65l21.21-11.27v20.73L83.17 57.38V36.65z"></path><path fill="#0168c5" d="M101.16 23.56L82 33.74 62.81 23.56l19.11-10.82 19.24 10.82zM38.9 10.86L59.26 0l19.8 11.14-19.07 10.92-21.09-11.2z"></path><path fill="#012f64" d="M0 55.24v20.73l21.2 11.27V66.51L0 55.24zM21.2 42.99L0 31.71v20.73l21.2 11.28V42.99zM24 68v20.73L45.2 100V79.27L24 68zM45.2 55.75L24 44.47V65.2l21.2 11.28V55.75z"></path><path fill="#00a8ef" d="M68.79 68v20.73L47.58 100V79.27L68.79 68zM47.58 55.75l21.21-11.28V65.2L47.58 76.48V55.75z"></path><path fill="#0168c5" d="M65.56 42.66L46.41 52.84 27.22 42.65l19.1-10.81 19.24 10.82zM3.31 29.95l20.36-10.86 19.8 11.14L24.4 41.16 3.31 29.95z"></path></svg></svg> <!----></g></g> <g transform="translate(67,8.461139678955078)"><g data-gra="path-name" fill-rule="" class="tp-name iconsvg-namesvg"><g transform="scale(1)"><g><path d="M16.32-18.27L24.44-39.45 34.45-39.45 36.27-18.27 45.05-40.69 55.64-40.69 40.69-3.9 29.45-3.9 26.91-21.97 19.44-3.9 8.19-3.9 3.83-39.45 2.6-40.69 14.43-40.69 16.32-18.27ZM63.96-31.33L92.04-31.33Q93.93-31.33 94.87-29.8 95.81-28.28 95.81-26.39L95.81-26.39 92.69-3.9 64.61-3.9Q62.73-3.9 61.78-5.13 60.84-6.37 60.84-8.26L60.84-8.26 63.96-31.33ZM83.33-25.09L75.79-25.09 73.32-10.14 80.8-10.14 83.33-25.09ZM104.13-31.33L132.21-31.33Q134.09-31.33 135.04-29.8 135.98-28.28 135.98-26.39L135.98-26.39 132.86-3.9 104.78-3.9Q102.89-3.9 101.95-5.13 101.01-6.37 101.01-8.26L101.01-8.26 104.13-31.33ZM123.5-25.09L115.96-25.09 113.49-10.14 120.97-10.14 123.5-25.09ZM144.3-44.46L158.66-44.46 153.66-10.14 158.01-3.9 144.95-3.9Q143.06-3.9 142.12-5.13 141.18-6.37 141.18-8.26L141.18-8.26 146.18-42.58 144.3-44.46Z" transform="translate(-2.5999999046325684, 44.459999084472656)"></path></g> <!----> <!----> <!----> <!----> <!----> <!----> <!----></g></g> <!----></g></g><defs v-gra="od"></defs></svg>